Coordinates
version=1
nRows=37
nColumns=33
inDegrees=yes

Units are S.I. units (second, meters, Newtons, ...)
Angles are in degrees.

endheader
time	ground_thorax_rot_x	ground_thorax_rot_y	ground_thorax_rot_z	ground_thorax_tx	ground_thorax_ty	ground_thorax_tz	clav_prot_r	clav_elev_r	scapula_abduction_r	scapula_elevation_r	scapula_upward_rot_r	scapula_winging_r	shoulder_elv_r	plane_of_elev_r	axial_rot_r	elbow_flexion_r	pro_sup_r	wrist_flex_r	wrist_dev_r	clav_prot_l	clav_elev_l	scapula_abduction_l	scapula_elevation_l	scapula_upward_rot_l	scapula_winging_l	shoulder_elv_l	plane_of_elev_l	axial_rot_l	elbow_flexion_l	pro_sup_l	wrist_flex_l	wrist_dev_l	
2.4800	3.353796	-7.567332	9.246360	-0.114494	1.040656	0.007732	5.694556	-6.436334	15.350844	-3.812897	10.296442	-4.727413	46.394028	30.305805	-1.664498	61.955425	46.946905	5.753154	15.172204	9.142453	-11.989444	-13.980269	2.342054	-8.434257	0.639012	50.618987	29.583932	3.844289	73.019781	17.510193	-3.849976	-6.985915	
2.4900	3.345696	-7.542368	9.448425	-0.114310	1.041201	0.007734	5.753889	-6.290646	15.721421	-3.852503	10.756316	-4.932678	46.823171	30.718971	-2.537018	62.585526	47.089177	5.770432	14.853735	9.241024	-11.772547	-14.254782	2.272298	-8.131071	0.849711	50.761368	30.439510	4.281610	73.643138	17.507196	-4.270157	-7.120849	
2.5000	3.327185	-7.524961	9.645670	-0.114149	1.041695	0.007725	5.841608	-6.125134	16.135178	-3.869381	11.205741	-5.159706	47.255253	31.107811	-3.458430	63.253926	47.181231	5.783896	14.597012	9.340174	-11.520747	-14.529340	2.169168	-7.830853	1.074005	50.918109	31.312966	4.725216	74.254784	17.533440	-4.686330	-7.252810	
2.5100	3.310422	-7.514132	9.826400	-0.113982	1.042174	0.007715	5.922704	-5.965006	16.546408	-3.893829	11.664955	-5.383655	47.681263	31.477461	-4.379044	63.946487	47.209219	5.796693	14.421156	9.419260	-11.271643	-14.773240	2.072778	-7.523003	1.284445	51.087229	32.174129	5.165930	74.864561	17.581057	-5.060142	-7.375779	
2.5200	3.292221	-7.501688	9.981541	-0.113829	1.042611	0.007691	6.003790	-5.798332	16.967642	-3.916499	12.137678	-5.613447	48.108449	31.833413	-5.312707	64.649720	47.210322	5.810773	14.290579	9.493034	-11.014994	-15.013013	1.975019	-7.203316	1.496397	51.271106	33.039115	5.607519	75.461480	17.649298	-5.406409	-7.490462	
2.5300	3.278381	-7.484361	10.109850	-0.113676	1.043029	0.007657	6.064434	-5.635621	17.368989	-3.949203	12.630474	-5.834752	48.526647	32.175854	-6.231008	65.356218	47.215944	5.833787	14.170262	9.555888	-10.771777	-15.241151	1.896985	-6.868330	1.698326	51.466427	33.886117	6.048304	76.053317	17.732170	-5.708912	-7.595428	
2.5400	3.265225	-7.459562	10.227284	-0.113555	1.043403	0.007602	6.130860	-5.458168	17.780065	-3.966963	13.121230	-6.064026	48.938730	32.499357	-7.160320	66.072506	47.268838	5.869107	14.013183	9.631732	-10.518059	-15.492224	1.809057	-6.533426	1.913902	51.665186	34.731890	6.501514	76.635421	17.832207	-6.001203	-7.696026	
2.5500	3.252569	-7.427187	10.327158	-0.113461	1.043731	0.007535	6.199960	-5.261165	18.196654	-3.967106	13.612975	-6.301955	49.344121	32.800539	-8.090535	66.809076	47.414502	5.930367	13.778130	9.724647	-10.253055	-15.776038	1.714545	-6.190520	2.147142	51.875734	35.565564	6.979546	77.212748	17.958122	-6.273958	-7.791483	
2.5600	3.246873	-7.391196	10.420974	-0.113384	1.044040	0.007465	6.265008	-5.060378	18.603378	-3.960554	14.097307	-6.536833	49.734708	33.079945	-8.996421	67.564977	47.638337	6.011904	13.471226	9.826641	-9.991923	-16.076629	1.624092	-5.847068	2.385594	52.088527	36.368826	7.476198	77.795228	18.100066	-6.523943	-7.882843	
2.5700	3.238942	-7.350021	10.487804	-0.113329	1.044297	0.007393	6.334289	-4.843530	19.018501	-3.939295	14.582260	-6.779988	50.125528	33.336848	-9.898214	68.347502	47.955572	6.109113	13.076700	9.942029	-9.722773	-16.408663	1.534698	-5.484836	2.640458	52.322251	37.152231	7.998591	78.370621	18.266636	-6.754971	-7.968837	
2.5800	3.237424	-7.310537	10.551226	-0.113282	1.044540	0.007331	6.401237	-4.633279	19.422156	-3.917089	15.051023	-7.015170	50.506489	33.572820	-10.761602	69.154261	48.312725	6.204158	12.634452	10.056673	-9.465178	-16.742442	1.456889	-5.120224	2.891820	52.560343	37.893492	8.528481	78.952166	18.438003	-6.968122	-8.051778	
2.5900	3.228366	-7.268218	10.594645	-0.113269	1.044712	0.007272	6.489664	-4.396758	19.854070	-3.866757	15.507296	-7.268993	50.894352	33.777905	-11.626404	70.002461	48.766557	6.293343	12.095457	10.192544	-9.187609	-17.119008	1.367317	-4.741116	3.168744	52.830362	38.609847	9.087816	79.531326	18.638583	-7.167134	-8.129321	
2.6000	3.228344	-7.229242	10.638427	-0.113260	1.044881	0.007235	6.567485	-4.173360	20.258872	-3.821228	15.945486	-7.506859	51.265335	33.963220	-12.427868	70.876758	49.249838	6.361714	11.509935	10.320699	-8.931527	-17.484829	1.298336	-4.360933	3.432797	53.106784	39.265184	9.644733	80.125342	18.836169	-7.335032	-8.202562	
2.6100	3.227093	-7.187643	10.665423	-0.113269	1.045004	0.007202	6.644263	-3.942776	20.656796	-3.765824	16.374649	-7.743807	51.630307	34.126545	-13.202392	71.780617	49.764500	6.408113	10.878719	10.449437	-8.675351	-17.856001	1.232928	-3.973125	3.698806	53.396816	39.887120	10.199648	80.721988	19.039597	-7.479046	-8.271789	
2.6200	3.230616	-7.142968	10.695529	-0.113292	1.045099	0.007171	6.712663	-3.709314	21.029647	-3.701676	16.786030	-7.971099	51.971913	34.265020	-13.934102	72.716055	50.271310	6.421340	10.231218	10.571475	-8.420664	-18.212262	1.164541	-3.596813	3.956831	53.670664	40.474109	10.734515	81.331030	19.237167	-7.593192	-8.340684	
2.6300	3.228421	-7.090772	10.716577	-0.113358	1.045114	0.007121	6.794234	-3.446153	21.412785	-3.605703	17.181273	-8.211595	52.304343	34.373116	-14.669796	73.693683	50.789608	6.415812	9.557298	10.704087	-8.134173	-18.582239	1.062950	-3.230849	4.231217	53.934123	41.058861	11.261890	81.942530	19.446625	-7.695041	-8.411340	
2.6400	3.226640	-7.031171	10.729990	-0.113446	1.045074	0.007057	6.872430	-3.167664	21.781637	-3.492229	17.564490	-8.450923	52.620103	34.456287	-15.388769	74.705886	51.263850	6.391660	8.896694	10.827970	-7.828280	-18.933134	0.939717	-2.875532	4.503293	54.161104	41.637776	11.755041	82.559969	19.652357	-7.778319	-8.488365	
2.6500	3.232094	-6.967719	10.727563	-0.113532	1.045020	0.006987	6.927288	-2.906818	22.109227	-3.391729	17.941907	-8.668072	52.921406	34.530256	-16.067172	75.732789	51.651713	6.368368	8.288468	10.923432	-7.534337	-19.233432	0.824148	-2.528116	4.748413	54.351081	42.197716	12.194696	83.187115	19.836399	-7.850084	-8.573279	
2.6600	3.242317	-6.898864	10.714863	-0.113608	1.044962	0.006914	6.960569	-2.664525	22.395678	-3.303633	18.309369	-8.862670	53.206702	34.591659	-16.704831	76.776225	51.954242	6.351238	7.729196	10.992253	-7.253067	-19.483308	0.713965	-2.195345	4.966259	54.506586	42.737944	12.574180	83.829133	19.999754	-7.912929	-8.666747	
2.6700	3.260514	-6.829623	10.701917	-0.113663	1.044941	0.006846	6.966415	-2.465280	22.627460	-3.245919	18.658135	-9.021441	53.472269	34.646556	-17.281929	77.824534	52.164032	6.360280	7.230042	11.030634	-7.007884	-19.672128	0.624955	-1.888676	5.143721	54.637093	43.242747	12.889784	84.491488	20.135531	-7.978129	-8.766749	
2.6800	3.278763	-6.756888	10.687825	-0.113693	1.044948	0.006779	6.952641	-2.296790	22.816060	-3.207958	18.987563	-9.152745	53.718806	34.686955	-17.813125	78.884170	52.296501	6.393613	6.773666	11.045925	-6.788872	-19.812770	0.549257	-1.606031	5.289891	54.749527	43.720484	13.142750	85.167997	20.253823	-8.045209	-8.872052	
2.6900	3.290480	-6.679232	10.682169	-0.113710	1.044969	0.006698	6.930048	-2.147027	22.975631	-3.178261	19.293206	-9.265707	53.940405	34.699444	-18.309288	79.957303	52.362326	6.456307	6.338146	11.048526	-6.582781	-19.918664	0.472432	-1.354152	5.414410	54.839203	44.182709	13.337033	85.851145	20.371237	-8.118231	-8.980332	
2.7000	3.287917	-6.593839	10.682979	-0.113742	1.044965	0.006596	6.920379	-1.987818	23.138657	-3.131780	19.572568	-9.382249	54.144294	34.676039	-18.800581	81.052280	52.420610	6.533775	5.882856	11.060210	-6.365237	-20.028238	0.374729	-1.127798	5.542807	54.922717	44.637952	13.496840	86.535181	20.510217	-8.194775	-9.089393	
2.7100	3.276669	-6.505558	10.696862	-0.113794	1.044949	0.006480	6.921703	-1.828835	23.298754	-3.075024	19.819933	-9.496878	54.328459	34.623977	-19.272043	82.160694	52.472583	6.625243	5.419711	11.079116	-6.146728	-20.137605	0.264465	-0.929317	5.669938	55.000030	45.073297	13.626860	87.224023	20.669184	-8.275235	-9.198963	
2.7200	3.264163	-6.417301	10.717698	-0.113858	1.044944	0.006364	6.924864	-1.685487	23.441588	-3.021154	20.035450	-9.599512	54.499238	34.558611	-19.709663	83.274463	52.521635	6.722287	4.971667	11.097933	-5.948932	-20.238357	0.163145	-0.753056	5.785620	55.082707	45.469591	13.727240	87.924890	20.838708	-8.355826	-9.309711	
2.7300	3.252188	-6.327745	10.744981	-0.113935	1.044956	0.006248	6.927887	-1.560809	23.564202	-2.972977	20.219428	-9.688079	54.658200	34.479227	-20.111724	84.392613	52.568194	6.825177	4.541316	11.116330	-5.778103	-20.328913	0.075294	-0.601563	5.886993	55.169659	45.827033	13.797108	88.638246	21.022681	-8.437492	-9.420854	
2.7400	3.243124	-6.234726	10.772173	-0.114012	1.045021	0.006138	6.917407	-1.474898	23.645733	-2.947875	20.372271	-9.748207	54.807769	34.390579	-20.466551	85.517437	52.603190	6.933791	4.148911	11.124215	-5.663602	-20.395217	0.028185	-0.472015	5.958411	55.270542	46.132566	13.825056	89.359892	21.221835	-8.520377	-9.529670	
2.7500	3.236997	-6.135926	10.797936	-0.114091	1.045113	0.006024	6.899333	-1.415038	23.698398	-2.936660	20.498821	-9.788586	54.951694	34.285529	-20.784624	86.650368	52.635680	7.048868	3.777826	11.127701	-5.589286	-20.445402	0.006586	-0.366726	6.008541	55.378797	46.401712	13.818198	90.090806	21.449379	-8.606609	-9.636154	
2.7600	3.232936	-6.031750	10.823102	-0.114179	1.045217	0.005904	6.879280	-1.373885	23.731153	-2.933245	20.599396	-9.814936	55.088723	34.160582	-21.072312	87.793600	52.670866	7.170572	3.416150	11.130477	-5.542858	-20.485131	-0.000237	-0.285389	6.043762	55.489718	46.643575	13.783735	90.826820	21.712662	-8.697045	-9.740048	
2.7700	3.223117	-5.917620	10.856685	-0.114304	1.045271	0.005754	6.884417	-1.314346	23.787929	-2.906532	20.675343	-9.855505	55.219592	33.986525	-21.360214	88.959065	52.742747	7.305186	3.006161	11.154987	-5.476393	-20.546520	-0.037399	-0.234506	6.093324	55.584490	46.889967	13.738447	91.564817	22.069209	-8.797941	-9.841531	
2.7800	3.208880	-5.801035	10.898685	-0.114465	1.045289	0.005589	6.911163	-1.248963	23.860633	-2.865734	20.722122	-9.903377	55.336829	33.776249	-21.638777	90.141893	52.839477	7.448995	2.561935	11.194259	-5.397134	-20.621140	-0.095776	-0.207450	6.151457	55.667214	47.127180	13.685457	92.303205	22.495829	-8.906130	-9.941694	
2.7900	3.193327	-5.687343	10.952898	-0.114658	1.045288	0.005426	6.953660	-1.193802	23.938069	-2.823211	20.735730	-9.949194	55.435849	33.540248	-21.895474	91.331890	52.946145	7.596990	2.100846	11.240826	-5.317964	-20.696964	-0.164112	-0.204436	6.208936	55.742378	47.336896	13.619989	93.050118	22.965176	-9.017125	-10.044468	
2.8000	3.181673	-5.582241	11.010048	-0.114868	1.045292	0.005284	6.998129	-1.167391	23.998176	-2.794573	20.715884	-9.979208	55.514942	33.302820	-22.116436	92.520252	53.031948	7.739951	1.658429	11.281083	-5.258852	-20.755743	-0.221563	-0.217614	6.251995	55.819415	47.505924	13.536069	93.803914	23.407975	-9.122494	-10.153361	
2.8100	3.164970	-5.476615	11.073229	-0.115103	1.045310	0.005147	7.050387	-1.167566	24.047066	-2.776343	20.657348	-9.996182	55.575426	33.043115	-22.316335	93.723906	53.099227	7.878602	1.220000	11.320203	-5.227207	-20.804759	-0.263570	-0.251848	6.281469	55.896014	47.640985	13.419667	94.549394	23.838533	-9.222711	-10.269123	
2.8200	3.151614	-5.375227	11.131576	-0.115352	1.045343	0.005025	7.101639	-1.200690	24.073530	-2.775345	20.564744	-9.994183	55.621395	32.779887	-22.485940	94.936271	53.129835	8.007933	0.807903	11.350786	-5.228876	-20.835121	-0.282000	-0.299853	6.291935	55.972472	47.745143	13.277769	95.283177	24.210095	-9.316754	-10.392214	
2.8300	3.134492	-5.271798	11.195098	-0.115623	1.045389	0.004903	7.161138	-1.262802	24.088943	-2.786301	20.432061	-9.978338	55.653657	32.490428	-22.635157	96.169391	53.131465	8.130010	0.402008	11.380195	-5.261837	-20.855189	-0.282375	-0.370737	6.287333	56.042763	47.823433	13.100100	96.000123	24.552598	-9.410442	-10.523728	
2.8400	3.126583	-5.173364	11.259132	-0.115905	1.045436	0.004784	7.226886	-1.353496	24.096027	-2.811508	20.267861	-9.949776	55.680874	32.185831	-22.749188	97.412243	53.102935	8.245022	0.007027	11.407605	-5.314940	-20.863015	-0.274195	-0.463531	6.270124	56.099033	47.882124	12.902043	96.714542	24.863295	-9.511248	-10.663364	
